<svg xmlns="http://www.w3.org/2000/svg" width="32px" height="32px"  viewBox="0 0 24 24"><g>
<path d="M12,21.942c-5.481,0-9.941-4.46-9.941-9.942S6.518,2.058,12,2.058c5.482,0,9.942,4.46,9.942,9.942
    S17.482,21.942,12,21.942z M12,3.058c-4.931,0-8.941,4.011-8.941,8.942S7.069,20.942,12,20.942s8.942-4.011,8.942-8.942
    S16.93,3.058,12,3.058z"/>
<path d="M16.693,13.744c-0.803,1.902-2.604,3.198-4.694,3.2c-2.088,0.002-3.892-1.301-4.694-3.2
    c-0.249-0.591-1.111-0.082-0.863,0.505c0.933,2.211,3.15,3.699,5.557,3.695c2.408-0.003,4.622-1.48,5.557-3.695
    C17.804,13.663,16.943,13.153,16.693,13.744L16.693,13.744z"/>
<circle cx="9" cy="9.011" r="1.25"/>
<circle cx="15" cy="9.011" r="1.25"/>
</g></svg>